<svg xmlns="http://www.w3.org/2000/svg" width="36" height="37" viewBox="0 0 36 37" fill="none">
<path fill-rule="evenodd" clip-rule="evenodd" d="M17.8014 36.1624C16.9551 36.186 16.1323 36.1153 15.286 35.9976C13.0057 35.6679 10.8664 34.9378 8.89172 33.7368C4.51917 31.0992 1.72167 27.2605 0.569764 22.2208C0.311172 21.0904 0.193631 19.9364 0.193631 18.7825C0.170122 14.1667 1.67466 10.1161 4.73074 6.67776C7.38718 3.71045 10.6784 1.8971 14.5572 1.1435C15.6386 0.931545 16.72 0.813795 17.8014 0.860895C17.8014 2.62715 17.8014 4.36985 17.8014 6.13611C17.7544 6.15966 17.7073 6.18321 17.6603 6.23031C17.0256 6.67776 16.3909 7.14876 15.7797 7.64331C14.3927 8.77371 13.0762 9.97476 11.9713 11.4113C10.4903 13.3189 9.50294 15.4148 9.36189 17.8876C9.29136 19.0651 9.43241 20.219 9.80854 21.3259C10.7254 24.0812 13.5699 26.9308 17.5663 27.0014C17.8014 27.0014 17.8484 27.0485 17.8484 27.3076C17.8249 28.5087 17.8249 30.9108 17.8249 30.9108C17.8249 30.9108 17.8249 31.0521 17.8249 31.1227C17.8014 32.7948 17.8014 34.4668 17.8014 36.1624Z" fill="#0099FF"/>
<path fill-rule="evenodd" clip-rule="evenodd" d="M17.8013 6.11182C17.8013 6.11182 17.8013 2.60287 17.8013 0.836614C18.7652 0.813064 19.7055 0.907265 20.6458 1.04856C22.409 1.33117 24.1016 1.84927 25.7001 2.67352C29.0148 4.39267 31.6242 6.84188 33.3874 10.186C34.3982 12.1171 35.0565 14.1659 35.315 16.309C35.6207 18.8288 35.3856 21.3252 34.6333 23.7508C33.7635 26.5062 32.306 28.9318 30.2608 30.9807C27.7689 33.4534 24.8068 35.0548 21.3746 35.7849C20.1992 36.0204 19.0003 36.1617 17.8013 36.1381C17.8013 34.4425 17.8013 32.7705 17.8013 31.0749C17.8013 31.0042 17.8013 30.8865 17.8013 30.8865C17.8013 30.8865 17.8719 30.8394 17.8954 30.8158C19.729 29.5206 21.4686 28.1076 22.9732 26.412C23.9605 25.3051 24.8068 24.1276 25.3945 22.7617C26.2173 20.8306 26.5464 18.8524 26.1233 16.7564C25.371 12.9413 21.9623 10.0918 18.0364 9.99758C17.7778 9.99758 17.8013 9.78563 17.8013 9.78563V6.11182Z" fill="#0561E2"/>
</svg>
